<?xml version="1.0" standalone="no"?>
<!DOCTYPE svg PUBLIC "-//W3C//DTD SVG 20010904//EN"
 "http://www.w3.org/TR/2001/REC-SVG-20010904/DTD/svg10.dtd">
<svg version="1.0" xmlns="http://www.w3.org/2000/svg"
 width="512.000000pt" height="512.000000pt" viewBox="0 0 512.000000 512.000000"
 preserveAspectRatio="xMidYMid meet">

<g transform="translate(0.000000,512.000000) scale(0.100000,-0.100000)"
fill="#000000" stroke="none">
<path d="M3950 4656 c-88 -19 -190 -59 -262 -102 -176 -107 -322 -318 -359
-516 l-12 -67 -1301 -3 -1301 -3 -72 -26 c-184 -68 -300 -182 -372 -367 l-26
-67 0 -875 0 -875 22 -70 c70 -222 277 -387 505 -402 l78 -6 0 -389 0 -389 25
-24 c31 -32 76 -32 109 -3 13 13 187 199 386 413 l362 390 996 5 997 5 58 22
c176 67 310 206 370 383 21 64 22 76 25 740 l3 676 82 16 c122 26 263 99 359
188 354 326 340 863 -29 1180 -66 57 -209 131 -298 155 -84 22 -264 28 -345
11z m275 -161 c298 -62 510 -341 492 -645 -24 -392 -398 -662 -782 -564 -204
52 -386 236 -440 444 -21 81 -22 234 0 313 85 320 407 520 730 452z m-900
-732 c23 -156 107 -317 225 -433 115 -113 233 -176 392 -208 l79 -17 -3 -665
c-3 -665 -3 -665 -26 -721 -53 -131 -146 -221 -269 -259 -63 -19 -92 -20
-1052 -20 -921 0 -988 -1 -1013 -18 -14 -9 -165 -167 -335 -350 l-308 -334 -2
319 c-2 214 -7 325 -14 340 -17 32 -52 42 -174 45 -99 3 -117 7 -178 35 -121
57 -210 169 -237 298 -7 34 -10 330 -8 880 l3 830 34 72 c58 124 182 221 309
243 26 4 615 8 1308 9 l1262 1 7 -47z"/>
<path d="M3871 4123 c-11 -10 -24 -33 -27 -50 -6 -30 -1 -38 67 -108 l73 -76
-67 -67 c-84 -85 -94 -117 -48 -163 46 -46 78 -36 163 48 l67 67 76 -73 c70
-68 78 -73 108 -67 40 8 67 39 67 78 0 24 -15 45 -69 102 l-70 71 70 71 c79
82 88 116 44 159 -43 44 -77 35 -159 -44 l-71 -70 -71 70 c-78 75 -111 86
-153 52z"/>
</g>
</svg>
