<svg width="24" height="24" viewBox="0 0 24 24" fill="none" xmlns="http://www.w3.org/2000/svg">
<path d="M18.5901 1.05121C18.1723 1.15037 17.688 1.35914 17.3462 1.58356C16.5106 2.14202 15.8174 3.24327 15.6418 4.27667L15.5848 4.62636L9.4081 4.64202L3.2314 4.65768L2.88957 4.79338C2.016 5.14828 1.46527 5.74327 1.12344 6.70882L1 7.05851V11.6253V16.1921L1.10445 16.5575C1.43678 17.7161 2.41955 18.5773 3.50202 18.6556L3.87233 18.6869V20.7172V22.7474L3.99102 22.8727C4.1382 23.0397 4.35185 23.0397 4.50852 22.8884C4.57024 22.8205 5.39633 21.8497 6.34111 20.7328L8.05977 18.6973L12.7884 18.6712L17.5218 18.6452L17.7972 18.5303C18.6328 18.1806 19.269 17.4552 19.5538 16.5314C19.6535 16.1973 19.6583 16.1347 19.6725 12.6692L19.6868 9.14098L20.0761 9.05747C20.6553 8.92177 21.3247 8.54077 21.7805 8.07626C23.4612 6.3748 23.3947 3.57208 21.6428 1.91759C21.3295 1.6201 20.6506 1.23388 20.228 1.10862C19.8292 0.993794 18.9746 0.962479 18.5901 1.05121ZM19.8957 1.8915C21.3105 2.21509 22.317 3.67125 22.2315 5.25789C22.1176 7.30381 20.342 8.713 18.5189 8.20152C17.5503 7.93012 16.6863 6.96979 16.4299 5.88419C16.3302 5.46143 16.3254 4.6629 16.4299 4.25058C16.8334 2.58043 18.3622 1.53659 19.8957 1.8915ZM15.6228 5.71196C15.732 6.52615 16.1308 7.36644 16.691 7.97187C17.237 8.56164 17.7972 8.89045 18.5521 9.05747L18.9272 9.14619L18.9129 12.617C18.8987 16.0877 18.8987 16.0877 18.7895 16.38C18.5378 17.0637 18.0963 17.5335 17.5124 17.7318C17.2132 17.831 17.0756 17.8362 12.5178 17.8362C8.14522 17.8362 7.82713 17.8414 7.70844 17.9301C7.64197 17.9771 6.92508 18.8017 6.11797 19.7568L4.6557 21.5001L4.6462 19.8351C4.63671 18.7182 4.61297 18.1389 4.57973 18.0606C4.49902 17.8936 4.33286 17.8414 3.75364 17.8257C3.28362 17.8101 3.19817 17.7892 2.90856 17.6431C2.33409 17.3456 1.91155 16.761 1.78336 16.0877C1.75013 15.9103 1.73589 14.3654 1.74538 11.4948L1.75963 7.1629L1.92105 6.78711C2.19641 6.13993 2.78512 5.63367 3.38807 5.51885C3.51151 5.49797 6.30788 5.47709 9.59801 5.47187L15.5896 5.46665L15.6228 5.71196Z" stroke="#3369F3"/>
<path d="M18.2151 3.83305C18.1628 3.88524 18.1011 4.00528 18.0869 4.09401C18.0584 4.25058 18.0821 4.29234 18.405 4.65768L18.7515 5.05434L18.4334 5.40403C18.0346 5.84766 17.9872 6.01467 18.2056 6.25476C18.424 6.49484 18.5759 6.44265 18.9794 6.00424L19.2975 5.65455L19.6583 6.03555C19.9907 6.39046 20.0287 6.41655 20.1711 6.38524C20.361 6.34348 20.4892 6.18169 20.4892 5.97814C20.4892 5.85288 20.418 5.74328 20.1616 5.44578L19.8293 5.07522L20.1616 4.70465C20.5367 4.27668 20.5794 4.09923 20.3705 3.8748C20.1663 3.64515 20.0049 3.69213 19.6156 4.10444L19.2785 4.46979L18.9414 4.10444C18.5711 3.713 18.4145 3.65559 18.2151 3.83305Z" fill="#3369F3"/>
</svg>
