<svg width="22" height="22" viewBox="0 0 22 22" fill="none" xmlns="http://www.w3.org/2000/svg">
<mask id="path-1-inside-1_1_206" fill="white">
<path fill-rule="evenodd" clip-rule="evenodd" d="M4 1.5H18C19.3807 1.5 20.5 2.61929 20.5 4V14L14.5194 12.4052C13.5108 12.1362 12.4714 12 11.4275 12H10.5725C9.52864 12 8.48921 12.1362 7.48057 12.4052L1.5 14V4C1.5 2.61929 2.61929 1.5 4 1.5ZM0 4C0 1.79086 1.79086 0 4 0H18C20.2091 0 22 1.79086 22 4V18C22 20.2091 20.2091 22 18 22H4C1.79086 22 0 20.2091 0 18V4ZM8 6C8 7.10457 7.10457 8 6 8C4.89543 8 4 7.10457 4 6C4 4.89543 4.89543 4 6 4C7.10457 4 8 4.89543 8 6Z"/>
</mask>
<path fill-rule="evenodd" clip-rule="evenodd" d="M4 1.5H18C19.3807 1.5 20.5 2.61929 20.5 4V14L14.5194 12.4052C13.5108 12.1362 12.4714 12 11.4275 12H10.5725C9.52864 12 8.48921 12.1362 7.48057 12.4052L1.5 14V4C1.5 2.61929 2.61929 1.5 4 1.5ZM0 4C0 1.79086 1.79086 0 4 0H18C20.2091 0 22 1.79086 22 4V18C22 20.2091 20.2091 22 18 22H4C1.79086 22 0 20.2091 0 18V4ZM8 6C8 7.10457 7.10457 8 6 8C4.89543 8 4 7.10457 4 6C4 4.89543 4.89543 4 6 4C7.10457 4 8 4.89543 8 6Z" fill="#3369F3"/>
<path d="M20.5 14L20.2423 14.9662L21.5 15.3016V14H20.5ZM14.5194 12.4052L14.7771 11.4389L14.7771 11.4389L14.5194 12.4052ZM7.48057 12.4052L7.73824 13.3714L7.73824 13.3714L7.48057 12.4052ZM1.5 14H0.5V15.3016L1.75766 14.9662L1.5 14ZM18 0.5H4V2.5H18V0.5ZM21.5 4C21.5 2.067 19.933 0.5 18 0.5V2.5C18.8284 2.5 19.5 3.17157 19.5 4H21.5ZM21.5 14V4H19.5V14H21.5ZM14.2618 13.3714L20.2423 14.9662L20.7577 13.0338L14.7771 11.4389L14.2618 13.3714ZM11.4275 13C12.3844 13 13.3372 13.1249 14.2618 13.3714L14.7771 11.4389C13.6844 11.1476 12.5584 11 11.4275 11V13ZM10.5725 13H11.4275V11H10.5725V13ZM7.73824 13.3714C8.66282 13.1249 9.61563 13 10.5725 13V11C9.44165 11 8.3156 11.1476 7.22291 11.4389L7.73824 13.3714ZM1.75766 14.9662L7.73824 13.3714L7.22291 11.4389L1.24234 13.0338L1.75766 14.9662ZM0.5 4V14H2.5V4H0.5ZM4 0.5C2.067 0.5 0.5 2.067 0.5 4H2.5C2.5 3.17157 3.17157 2.5 4 2.5V0.5ZM4 -1C1.23858 -1 -1 1.23858 -1 4H1C1 2.34315 2.34315 1 4 1V-1ZM18 -1H4V1H18V-1ZM23 4C23 1.23858 20.7614 -1 18 -1V1C19.6569 1 21 2.34315 21 4H23ZM23 18V4H21V18H23ZM18 23C20.7614 23 23 20.7614 23 18H21C21 19.6569 19.6569 21 18 21V23ZM4 23H18V21H4V23ZM-1 18C-1 20.7614 1.23858 23 4 23V21C2.34315 21 1 19.6569 1 18H-1ZM-1 4V18H1V4H-1ZM6 9C7.65685 9 9 7.65685 9 6H7C7 6.55228 6.55228 7 6 7V9ZM3 6C3 7.65685 4.34315 9 6 9V7C5.44772 7 5 6.55228 5 6H3ZM6 3C4.34315 3 3 4.34315 3 6H5C5 5.44772 5.44772 5 6 5V3ZM9 6C9 4.34315 7.65685 3 6 3V5C6.55228 5 7 5.44772 7 6H9Z" fill="black" mask="url(#path-1-inside-1_1_206)"/>
</svg>
